#N canvas 303 291 1280 708 12;
#X obj 965 649 gemwin 60;
#X msg 957 508 0 \, destroy;
#X obj 891 547 alternator debug;
#X obj 892 517 bng 15 250 50 0 empty empty empty 17 7 0 10 #fcfcfc
#000000 #000000 1;
#X msg 997 618 dimen 640 360 \, cursor 1 \, border 1 \, create \, 1
;
#N canvas 489 348 667 676 audio 1;
#X obj 186 314 outlet;
#X obj 27 545 outlet~;
#X obj 132 203 soundfiler;
#X msg 132 176 read -resize baseball.wav baseball-wav;
#N canvas 0 50 450 250 (subpatch) 0;
#X array baseball-wav 1.96782e+07 float 2 black black;
#X coords 0 1 1.96782e+07 -1 200 140 1;
#X restore 279 15 graph;
#X obj 87 644 dac~;
#X obj 86 573 tabread4~ baseball-wav;
#X obj 132 260 / 44100;
#X obj 87 544 *~;
#X text 180 229 <- # samples;
#X text 179 286 <- # secs;
#X obj 132 148 loadbang;
#X obj 359 207 inlet;
#X text 405 219 <- start/stop;
#X obj 88 511 expr~ if ($v1 > 1 \, \\$v1-1 \, \\$v1);
#X obj 554 202 inlet;
#X obj 87 455 line~;
#X msg 351 292 stop;
#X obj 132 314 * 1000;
#X obj 132 287 t a a;
#X obj 132 230 t a a a;
#X obj 409 301 snapshot~;
#X obj 356 264 t b b;
#X obj 391 395 - 1;
#X obj 391 419 * -1;
#X obj 114 350 *;
#X obj 113 383 list;
#X obj 390 356 t a a;
#X msg 87 415 \$2 \, 1 \$1;
#X obj 358 238 moses 1;
#X msg 406 263 bang;
#X obj 389 330 f 0;
#X obj 554 231 t b a;
#X obj 554 321 s startAudio;
#X msg 555 282 1;
#N canvas 1018 1327 450 350 samples 1;
#X obj 66 45 sample 1;
#X obj 65 22 bng 15 250 50 0 empty empty empty 17 7 0 10 #fcfcfc #000000
#000000 1;
#X connect 1 0 0 0;
#X restore 479 495 pd samples;
#X connect 2 0 20 0;
#X connect 3 0 2 0;
#X connect 6 0 5 1;
#X connect 6 0 5 0;
#X connect 7 0 19 0;
#X connect 8 0 6 0;
#X connect 11 0 3 0;
#X connect 12 0 29 0;
#X connect 14 0 8 0;
#X connect 14 0 1 0;
#X connect 15 0 32 0;
#X connect 16 0 14 0;
#X connect 16 0 21 0;
#X connect 17 0 16 0;
#X connect 18 0 25 1;
#X connect 19 0 18 0;
#X connect 19 1 0 0;
#X connect 20 1 7 0;
#X connect 20 2 8 1;
#X connect 21 0 31 1;
#X connect 22 0 17 0;
#X connect 22 1 21 0;
#X connect 23 0 24 0;
#X connect 24 0 25 0;
#X connect 25 0 26 0;
#X connect 26 0 28 0;
#X connect 27 0 23 0;
#X connect 27 1 26 1;
#X connect 28 0 16 0;
#X connect 29 0 22 0;
#X connect 29 1 30 0;
#X connect 30 0 31 0;
#X connect 31 0 27 0;
#X connect 32 0 34 0;
#X connect 32 1 31 1;
#X connect 34 0 33 0;
#X restore 424 391 pd audio;
#N canvas 303 61 450 300 init 0;
#X msg 56 107 1;
#X msg 94 107 0;
#X obj 83 152 s debug;
#X obj 53 76 loadbang;
#X msg 166 105 \; pd dsp 1;
#X obj 165 77 loadbang;
#X connect 0 0 2 0;
#X connect 1 0 2 0;
#X connect 3 0 0 0;
#X connect 5 0 4 0;
#X restore 522 18 pd init;
#X obj 424 360 tgl 15 0 empty startAudio empty 17 7 0 10 #fcfcfc #000000
#000000 0 1 1;
#X msg 483 344 0;
#X msg 523 344 0.1;
#X msg 559 344 0.2;
#X msg 599 345 0.3;
#N canvas 253 300 369 402 video 0;
#X obj 96 303 pix_texture;
#X obj 96 273 pix_movie baseball.mp4;
#X obj 96 246 gemhead;
#X obj 96 331 rectangle 7.11111 4;
#X obj 80 110 snapshot~;
#X obj 81 77 metro 16.667;
#X obj 82 51 bng 15 250 50 0 empty empty empty 17 7 0 10 #fcfcfc #000000
#000000 1;
#X floatatom 80 192 10 0 0 0 - - - 0 0 1, f 10;
#X obj 80 136 *;
#X obj 80 164 * 24.8745;
#X text 153 193 <- frame #;
#X obj 109 44 loadbang;
#X obj 25 26 inlet~;
#X obj 212 34 inlet;
#X connect 0 0 3 0;
#X connect 1 0 0 0;
#X connect 2 0 1 0;
#X connect 4 0 8 0;
#X connect 5 0 4 0;
#X connect 6 0 5 0;
#X connect 8 0 9 0;
#X connect 9 0 1 1;
#X connect 9 0 7 0;
#X connect 11 0 5 0;
#X connect 12 0 4 0;
#X connect 13 0 8 1;
#X restore 425 421 pd video;
#N canvas 357 129 1170 746 selector 0;
#X obj 97 118 select 10 13;
#X obj 92 302 - 48;
#X obj 114 335 + 0;
#X obj 132 302 * 10;
#X msg 91 263 0;
#X obj 96 368 int;
#X obj 82 226 t b b;
#X obj 89 193 spigot 0;
#X msg 171 163 1;
#X msg 136 159 0;
#X obj 344 8 inlet;
#X obj 397 127 outlet;
#X obj 344 34 moses 65;
#X obj 573 541 outlet;
#X obj 193 398 / 1000;
#X obj 535 111 select 10 13;
#X msg 548 58 50 \, 52 \, 48 \, 10 \, 13 \, 10;
#X msg 617 85 50 \, 50 \, 52 \, 48 \, 10 \, 13 \, 10;
#X obj 742 195 list;
#X obj 661 229 list prepend;
#X obj 616 144 t a 1;
#X obj 580 229 spigot 0;
#X obj 504 260 spigot 0;
#X obj 504 293 list;
#X obj 536 144 t b 0 b 1;
#X obj 503 322 t b a a;
#X msg 421 8 52 \, 10 \, 13 \, 10;
#X msg 502 31 52 \, 51 \, 10 \, 13 \, 10;
#X obj 527 397 moses 4;
#X obj 527 362 list length;
#X obj 556 293 list;
#X obj 448 292 t b 48;
#X obj 573 459 list;
#X obj 573 429 t b;
#X obj 573 486 list prepend string;
#X obj 573 515 list trim;
#X connect 0 0 7 0;
#X connect 0 1 7 0;
#X connect 0 2 1 0;
#X connect 0 2 8 0;
#X connect 1 0 2 0;
#X connect 2 0 3 0;
#X connect 2 0 5 1;
#X connect 3 0 2 1;
#X connect 4 0 3 0;
#X connect 5 0 14 0;
#X connect 6 0 4 0;
#X connect 6 0 9 0;
#X connect 6 1 5 0;
#X connect 7 0 6 0;
#X connect 8 0 7 1;
#X connect 9 0 7 1;
#X connect 10 0 12 0;
#X connect 12 0 15 0;
#X connect 12 1 11 0;
#X connect 15 0 24 0;
#X connect 15 1 24 0;
#X connect 15 2 20 0;
#X connect 16 0 15 0;
#X connect 17 0 15 0;
#X connect 18 0 19 1;
#X connect 19 0 18 0;
#X connect 19 0 23 1;
#X connect 20 0 19 0;
#X connect 20 1 21 1;
#X connect 21 0 22 1;
#X connect 22 0 23 0;
#X connect 23 0 25 0;
#X connect 24 0 18 1;
#X connect 24 0 19 1;
#X connect 24 1 21 1;
#X connect 24 1 22 1;
#X connect 24 2 22 0;
#X connect 24 3 21 0;
#X connect 25 1 29 0;
#X connect 25 2 30 1;
#X connect 25 2 32 1;
#X connect 26 0 15 0;
#X connect 27 0 15 0;
#X connect 28 0 31 0;
#X connect 28 1 33 0;
#X connect 29 0 28 0;
#X connect 30 0 23 1;
#X connect 31 0 23 0;
#X connect 31 1 30 0;
#X connect 32 0 34 0;
#X connect 33 0 32 0;
#X connect 34 0 35 0;
#X connect 35 0 13 0;
#X restore 447 186 pd selector;
#X text 49 591 clearance rack;
#X msg 446 114 66;
#X msg 484 115 67;
#X msg 519 113 68;
#X msg 408 330 0;
#X msg 602 110 115;
#X text 412 77 comport selector;
#X text 924 461 window management;
#X obj 132 76 comport /dev/ttyUSB0 9600;
#X msg 404 114 65;
#X obj 131 143 int;
#X obj 174 115 + 1;
#X obj 131 171 list;
#X obj 130 110 t b a;
#X obj 131 202 print Serial#;
#N canvas 372 369 733 584 highScores 0;
#X obj 242 155 import cyclone;
#X obj 489 326;
#X floatatom 364 239 5 0 0 0 - - - 0 0 1, f 5;
#X obj 369 336 print;
#X obj 356 268 sprintf %.3f;
#X obj 574 278 makefilename;
#X obj 446 215 printf;
#X connect 2 0 4 0;
#X connect 4 0 3 0;
#X restore 152 295 pd highScores;
#X msg 557 112 88;
#X obj 451 225 select 65 66 67 68 115 88;
#X msg 636 343 0.4;
#X obj 671 288 scoreboard 5 -3;
#N canvas 99 572 450 389 counter 0;
#X obj 127 270 outlet;
#X obj 94 12 inlet;
#X msg 94 102 bang;
#X msg 133 103 stop;
#X obj 94 72 t b b;
#X obj 94 42 select 1 0;
#X obj 127 210 + 5;
#X obj 127 240 / 100;
#X msg 184 142 20;
#X obj 94 132 metro 500;
#X msg 190 97 0;
#X obj 127 180 int 0;
#X connect 1 0 5 0;
#X connect 2 0 9 0;
#X connect 3 0 9 0;
#X connect 4 0 2 0;
#X connect 4 1 8 0;
#X connect 5 0 4 0;
#X connect 5 1 3 0;
#X connect 6 0 11 1;
#X connect 6 0 7 0;
#X connect 7 0 0 0;
#X connect 8 0 11 1;
#X connect 9 0 11 0;
#X connect 11 0 6 0;
#X restore 53 610 pd counter;
#X obj 86 7 loadbang;
#X msg 88 31 devicename /dev/ttyUSB0;
#X obj 939 378 scoreboard -5 -3;
#X obj 939 348 scoreboard -5 -1.75;
#X obj 939 318 scoreboard -5 -0.5;
#X obj 939 288 scoreboard -5 0.75;
#X msg 933 244 text 0.24;
#X msg 893 578 title bbbaseball \, cursor 0 \, border 0 \, dimen 1920
1080 \, offset 0 0 \, create \, 1;
#X floatatom 678 246 5 0 0 0 - - - 0 0 1, f 5;
#X floatatom 631 246 5 0 0 0 - - - 0 0 1, f 5;
#X floatatom 759 248 5 0 0 0 - - - 0 0 1, f 5;
#X floatatom 805 249 5 0 0 0 - - - 0 0 1, f 5;
#X floatatom 847 252 5 0 0 0 - - - 0 0 1, f 5;
#X obj 1026 95 nbx 5 14 -1e+37 1e+37 0 1 empty empty empty 0 -8 0 10
#fcfcfc #000000 #000000 61.44 256 0 0 1 0;
#X obj 1026 133 print number;
#X obj 1141 91 nbx 5 14 -1e+37 1e+37 0 0 empty empty empty 0 -8 0 10
#fcfcfc #000000 #000000 0 256 0 0 1 0;
#X obj 1141 129 print number2;
#X connect 1 0 0 0;
#X connect 2 0 42 0;
#X connect 2 1 4 0;
#X connect 3 0 2 0;
#X connect 4 0 0 0;
#X connect 5 0 12 0;
#X connect 5 1 12 1;
#X connect 7 0 5 0;
#X connect 8 0 5 1;
#X connect 9 0 5 1;
#X connect 10 0 5 1;
#X connect 11 0 5 1;
#X connect 13 0 31 0;
#X connect 13 1 33 2;
#X connect 15 0 13 0;
#X connect 16 0 13 0;
#X connect 17 0 13 0;
#X connect 18 0 7 0;
#X connect 19 0 13 0;
#X connect 22 0 13 0;
#X connect 22 0 27 0;
#X connect 23 0 13 0;
#X connect 24 0 25 0;
#X connect 24 0 26 0;
#X connect 25 0 24 1;
#X connect 26 0 28 0;
#X connect 27 0 24 0;
#X connect 27 1 26 1;
#X connect 31 0 8 0;
#X connect 31 1 9 0;
#X connect 31 2 10 0;
#X connect 31 3 11 0;
#X connect 31 4 18 0;
#X connect 31 5 32 0;
#X connect 32 0 5 1;
#X connect 35 0 36 0;
#X connect 36 0 22 0;
#X connect 41 0 40 0;
#X connect 42 0 0 0;
#X connect 43 0 33 1;
#X connect 44 0 33 0;
#X connect 45 0 33 3;
#X connect 46 0 33 4;
#X connect 47 0 33 5;
#X connect 48 0 49 0;
#X connect 50 0 51 0;
