#N canvas 1921 372 1278 672 12;
#X obj 807 287 gemwin 60;
#X msg 799 146 0 \, destroy;
#X obj 733 185 alternator debug;
#X obj 734 155 bng 15 250 50 0 empty empty empty 17 7 0 10 -262144
-1 -1;
#X msg 839 256 dimen 640 360 \, cursor 1 \, border 1 \, create \, 1
;
#N canvas 303 61 450 300 init 0;
#X msg 56 107 1;
#X msg 94 107 0;
#X obj 83 152 s debug;
#X obj 53 76 loadbang;
#X msg 166 105 \; pd dsp 1;
#X obj 165 77 loadbang;
#X connect 0 0 2 0;
#X connect 1 0 2 0;
#X connect 3 0 0 0;
#X connect 5 0 4 0;
#X restore 522 18 pd init;
#N canvas 1288 198 536 565 selector 1;
#X obj 4 8 inlet;
#X obj 57 127 outlet;
#X obj 4 34 moses 65;
#X obj 233 541 outlet;
#X obj 195 111 select 10 13;
#X msg 208 58 50 \, 52 \, 48 \, 10 \, 13 \, 10;
#X msg 277 85 50 \, 50 \, 52 \, 48 \, 10 \, 13 \, 10;
#X obj 402 195 list;
#X obj 321 229 list prepend;
#X obj 164 293 list;
#X obj 163 322 t b a a;
#X msg 81 8 52 \, 10 \, 13 \, 10;
#X msg 162 31 52 \, 51 \, 10 \, 13 \, 10;
#X obj 187 397 moses 4;
#X obj 187 362 list length;
#X obj 216 293 list;
#X obj 77 202 t b 48;
#X obj 233 459 list;
#X obj 233 429 t b;
#X obj 233 486 list prepend string;
#X obj 233 515 list trim;
#X obj 240 229 spigot 0;
#X obj 164 260 spigot 0;
#X msg 242 188 1;
#X msg 300 185 1;
#X obj 196 144 t b 0 b b;
#X obj 276 144 t a b;
#X msg 117 227 48;
#N canvas 1 60 450 300 throw-me-in-the-trash 0;
#X obj 52 7 select 10 13;
#X obj 47 191 - 48;
#X obj 69 224 + 0;
#X obj 87 191 * 10;
#X msg 46 152 0;
#X obj 51 257 int;
#X obj 37 115 t b b;
#X obj 44 82 spigot 0;
#X msg 126 52 1;
#X msg 91 48 0;
#X obj 148 287 / 1000;
#X connect 0 0 7 0;
#X connect 0 1 7 0;
#X connect 0 2 1 0;
#X connect 0 2 8 0;
#X connect 1 0 2 0;
#X connect 2 0 3 0;
#X connect 2 0 5 1;
#X connect 3 0 2 1;
#X connect 4 0 3 0;
#X connect 5 0 10 0;
#X connect 6 0 4 0;
#X connect 6 0 9 0;
#X connect 6 1 5 0;
#X connect 7 0 6 0;
#X connect 8 0 7 1;
#X connect 9 0 7 1;
#X restore 313 434 pd throw-me-in-the-trash;
#X connect 0 0 2 0;
#X connect 2 0 4 0;
#X connect 2 1 1 0;
#X connect 4 0 25 0;
#X connect 4 1 25 0;
#X connect 4 2 26 0;
#X connect 5 0 4 0;
#X connect 6 0 4 0;
#X connect 7 0 8 1;
#X connect 8 0 7 0;
#X connect 8 0 9 1;
#X connect 9 0 10 0;
#X connect 10 1 14 0;
#X connect 10 2 15 1;
#X connect 10 2 17 1;
#X connect 11 0 4 0;
#X connect 12 0 4 0;
#X connect 13 0 16 0;
#X connect 13 1 18 0;
#X connect 14 0 13 0;
#X connect 15 0 9 1;
#X connect 16 0 9 0;
#X connect 16 1 27 0;
#X connect 17 0 19 0;
#X connect 18 0 17 0;
#X connect 19 0 20 0;
#X connect 20 0 3 0;
#X connect 21 0 22 1;
#X connect 22 0 9 0;
#X connect 23 0 21 0;
#X connect 24 0 21 1;
#X connect 25 0 7 1;
#X connect 25 0 8 1;
#X connect 25 1 21 1;
#X connect 25 1 22 1;
#X connect 25 2 22 0;
#X connect 25 3 23 0;
#X connect 26 0 8 0;
#X connect 26 1 24 0;
#X connect 27 0 15 0;
#X restore 447 186 pd selector;
#X text 130 239 clearance rack;
#X msg 446 114 66;
#X msg 484 115 67;
#X msg 519 113 68;
#X msg 602 110 115;
#X text 412 77 comport selector;
#X text 906 24 window management;
#X obj 132 76 comport /dev/ttyUSB0 9600;
#X msg 404 114 65;
#X obj 132 136 int;
#X obj 171 136 + 1;
#X obj 132 164 list;
#X obj 132 106 t b a;
#X obj 132 195 print Serial#;
#X msg 557 112 88;
#X obj 447 214 select 65 66 67 68 115 88;
#N canvas 99 572 450 389 counter 0;
#X obj 127 270 outlet;
#X obj 94 12 inlet;
#X msg 94 102 bang;
#X msg 133 103 stop;
#X obj 94 72 t b b;
#X obj 94 42 select 1 0;
#X obj 127 210 + 5;
#X obj 127 240 / 100;
#X msg 184 142 20;
#X obj 94 132 metro 500;
#X msg 190 97 0;
#X obj 127 180 int 0;
#X connect 1 0 5 0;
#X connect 2 0 9 0;
#X connect 3 0 9 0;
#X connect 4 0 2 0;
#X connect 4 1 8 0;
#X connect 5 0 4 0;
#X connect 5 1 3 0;
#X connect 6 0 11 1;
#X connect 6 0 7 0;
#X connect 7 0 0 0;
#X connect 8 0 11 1;
#X connect 9 0 11 0;
#X connect 11 0 6 0;
#X restore 134 258 pd counter;
#X obj 130 23 loadbang;
#X msg 132 47 devicename /dev/ttyUSB0;
#X msg 735 216 title bbbaseball \, cursor 0 \, border 0 \, dimen 1920
1080 \, offset 0 0 \, create \, 1;
#X floatatom 473 335 5 0 0 0 - - -, f 5;
#X floatatom 426 335 5 0 0 0 - - -, f 5;
#X floatatom 554 337 5 0 0 0 - - -, f 5;
#X floatatom 600 338 5 0 0 0 - - -, f 5;
#X floatatom 642 341 5 0 0 0 - - -, f 5;
#X obj 447 245 sample 1;
#X obj 475 273 sample 2;
#X obj 401 336 bng 15 250 50 0 empty empty empty 17 7 0 10 -262144
-1 -1;
#X obj 465 444 scoreboard -7 -0.5 9;
#X obj 465 474 scoreboard -7 -1.75 9;
#X obj 465 504 scoreboard -7 -3 9;
#X obj 465 414 scoreboard -7 0.75 9;
#X obj 466 377 scoreboard 0 0 52;
#X obj 799 96 key;
#X obj 799 122 select 113;
#X obj 879 123 select 24;
#X obj 879 95 gemkeyboard;
#X connect 1 0 0 0;
#X connect 2 0 26 0;
#X connect 2 1 4 0;
#X connect 3 0 2 0;
#X connect 4 0 0 0;
#X connect 6 0 22 0;
#X connect 6 1 39 3;
#X connect 8 0 6 0;
#X connect 9 0 6 0;
#X connect 10 0 6 0;
#X connect 11 0 6 0;
#X connect 14 0 6 0;
#X connect 14 0 19 0;
#X connect 15 0 6 0;
#X connect 16 0 17 0;
#X connect 16 0 18 0;
#X connect 17 0 16 1;
#X connect 18 0 20 0;
#X connect 19 0 16 0;
#X connect 19 1 18 1;
#X connect 22 0 32 0;
#X connect 22 1 33 0;
#X connect 24 0 25 0;
#X connect 25 0 14 0;
#X connect 26 0 0 0;
#X connect 27 0 39 2;
#X connect 28 0 39 1;
#X connect 29 0 39 4;
#X connect 30 0 39 5;
#X connect 31 0 39 6;
#X connect 34 0 39 0;
#X connect 35 0 36 0;
#X connect 36 0 37 0;
#X connect 38 0 35 0;
#X connect 39 0 38 0;
#X connect 40 0 41 0;
#X connect 41 0 1 0;
#X connect 42 0 1 0;
#X connect 43 0 42 0;
