#N canvas 428 341 1414 714 12;
#X obj 965 649 gemwin 60;
#X msg 957 508 0 \, destroy;
#X obj 891 547 alternator debug;
#X obj 892 517 bng 15 250 50 0 empty empty empty 17 7 0 10 #fcfcfc
#000000 #000000 1;
#N canvas 303 63 450 300 init 0;
#X msg 56 107 1;
#X msg 94 107 0;
#X obj 83 152 s debug;
#X obj 53 76 loadbang;
#X msg 166 105 \; pd dsp 1;
#X obj 165 77 loadbang;
#X obj 24 29 import Gem;
#X connect 0 0 2 0;
#X connect 1 0 2 0;
#X connect 3 0 0 0;
#X connect 5 0 4 0;
#X restore 522 18 pd init;
#N canvas 143 1227 1170 796 selector 1;
#X obj 97 118 select 10 13;
#X obj 92 302 - 48;
#X obj 114 335 + 0;
#X obj 132 302 * 10;
#X msg 91 263 0;
#X obj 96 368 int;
#X obj 82 226 t b b;
#X obj 89 193 spigot 0;
#X msg 171 163 1;
#X msg 136 159 0;
#X obj 344 8 inlet;
#X obj 397 127 outlet;
#X obj 344 34 moses 65;
#X obj 573 541 outlet;
#X obj 193 398 / 1000;
#X obj 535 111 select 10 13;
#X msg 548 58 50 \, 52 \, 48 \, 10 \, 13 \, 10;
#X msg 617 85 50 \, 50 \, 52 \, 48 \, 10 \, 13 \, 10;
#X obj 742 195 list;
#X obj 661 229 list prepend;
#X obj 616 144 t a 1;
#X obj 580 229 spigot 0;
#X obj 504 260 spigot 0;
#X obj 504 293 list;
#X obj 536 144 t b 0 b 1;
#X obj 503 322 t b a a;
#X msg 421 8 52 \, 10 \, 13 \, 10;
#X msg 502 31 52 \, 51 \, 10 \, 13 \, 10;
#X obj 527 397 moses 4;
#X obj 527 362 list length;
#X obj 556 293 list;
#X obj 448 292 t b 48;
#X obj 573 459 list;
#X obj 573 429 t b;
#X obj 573 486 list prepend string;
#X obj 573 515 list trim;
#X connect 0 0 7 0;
#X connect 0 1 7 0;
#X connect 0 2 1 0;
#X connect 0 2 8 0;
#X connect 1 0 2 0;
#X connect 2 0 3 0;
#X connect 2 0 5 1;
#X connect 3 0 2 1;
#X connect 4 0 3 0;
#X connect 5 0 14 0;
#X connect 6 0 4 0;
#X connect 6 0 9 0;
#X connect 6 1 5 0;
#X connect 7 0 6 0;
#X connect 8 0 7 1;
#X connect 9 0 7 1;
#X connect 10 0 12 0;
#X connect 12 0 15 0;
#X connect 12 1 11 0;
#X connect 15 0 24 0;
#X connect 15 1 24 0;
#X connect 15 2 20 0;
#X connect 16 0 15 0;
#X connect 17 0 15 0;
#X connect 18 0 19 1;
#X connect 19 0 18 0;
#X connect 19 0 23 1;
#X connect 20 0 19 0;
#X connect 20 1 21 1;
#X connect 21 0 22 1;
#X connect 22 0 23 0;
#X connect 23 0 25 0;
#X connect 24 0 18 1;
#X connect 24 0 19 1;
#X connect 24 1 21 1;
#X connect 24 1 22 1;
#X connect 24 2 22 0;
#X connect 24 3 21 0;
#X connect 25 1 29 0;
#X connect 25 2 30 1;
#X connect 25 2 32 1;
#X connect 26 0 15 0;
#X connect 27 0 15 0;
#X connect 28 0 31 0;
#X connect 28 1 33 0;
#X connect 29 0 28 0;
#X connect 30 0 23 1;
#X connect 31 0 23 0;
#X connect 31 1 30 0;
#X connect 32 0 34 0;
#X connect 33 0 32 0;
#X connect 34 0 35 0;
#X connect 35 0 13 0;
#X restore 447 186 pd selector;
#X text 49 591 clearance rack;
#X msg 446 114 66;
#X msg 484 115 67;
#X msg 519 113 68;
#X text 462 48 comport selector;
#X text 924 461 window management;
#X obj 132 76 comport /dev/ttyUSB0 9600;
#X obj 130 140 int;
#X obj 169 140 + 1;
#X obj 130 168 list;
#X obj 130 110 t b a;
#X obj 130 199 print Serial#;
#N canvas 99 572 450 389 counter 0;
#X obj 127 270 outlet;
#X obj 94 12 inlet;
#X msg 94 102 bang;
#X msg 133 103 stop;
#X obj 94 72 t b b;
#X obj 94 42 select 1 0;
#X obj 127 210 + 5;
#X obj 127 240 / 100;
#X msg 184 142 20;
#X obj 94 132 metro 500;
#X msg 190 97 0;
#X obj 127 180 int 0;
#X connect 1 0 5 0;
#X connect 2 0 9 0;
#X connect 3 0 9 0;
#X connect 4 0 2 0;
#X connect 4 1 8 0;
#X connect 5 0 4 0;
#X connect 5 1 3 0;
#X connect 6 0 11 1;
#X connect 6 0 7 0;
#X connect 7 0 0 0;
#X connect 8 0 11 1;
#X connect 9 0 11 0;
#X connect 11 0 6 0;
#X restore 53 610 pd counter;
#X obj 130 23 loadbang;
#X msg 132 47 devicename /dev/ttyUSB0;
#X obj 179 471 sample ambient;
#X msg 557 112 84;
#X text 453 90 B C D T;
#X text 436 78 start;
#X text 486 76 bat;
#X text 509 64 button;
#X text 560 73 timeout;
#X obj 447 214 select 66 67 68 84;
#X obj 301 472 sample button_hit;
#X obj 450 471 sample button_solid;
#X obj 606 471 sample right_button;
#X obj 110 434 loadbang;
#X obj 177 435 bng 15 250 50 0 empty empty empty 17 7 0 10 #fcfcfc
#000000 #000000 1;
#X msg 321 383 1 1000;
#X msg 446 383 bang;
#X msg 488 383 0 10000;
#X msg 204 432 0;
#X msg 562 352 0 2000;
#X obj 620 351 t b b;
#X obj 633 311 bng 15 250 50 0 empty empty empty 17 7 0 10 #fcfcfc
#000000 #000000 1;
#X msg 203 387 0;
#X msg 676 387 1.75 2000 0 \, 0 4500 2000;
#X msg 893 578 title bbbaseball \, cursor 0 \, border 0 \, dimen 1440
900 \, offset 0 0 \, create \, 1;
#X msg 997 618 dimen 1440 900 \, cursor 1 \, border 1 \, create \,
1;
#X obj 355 677 rectangle 6.4 4;
#X obj 354 589 gemhead;
#X obj 356 616 pix_image /home/user/dev/pd/pd-baseball/Artboard_1.jpg
;
#X obj 355 645 pix_texture;
#X obj 1001 184 scoreboard 0 -0.4 42;
#X obj 1001 228 scoreboard 5 0.55 10;
#X obj 1001 258 scoreboard 5 -0.16 10;
#X obj 1001 288 scoreboard 5 -0.87 10;
#X obj 1001 318 scoreboard 5 -1.58 10;
#X obj 1001 349 scoreboard 5 -2.28 10;
#X obj 955 114 bng 15 250 50 0 empty empty empty 17 7 0 10 #fcfcfc
#000000 #000000 1;
#X connect 1 0 0 0;
#X connect 2 0 43 0;
#X connect 2 1 44 0;
#X connect 3 0 2 0;
#X connect 5 0 28 0;
#X connect 5 1 49 1;
#X connect 7 0 5 0;
#X connect 8 0 5 0;
#X connect 9 0 5 0;
#X connect 12 0 5 0;
#X connect 12 0 16 0;
#X connect 13 0 14 0;
#X connect 13 0 15 0;
#X connect 14 0 13 1;
#X connect 15 0 17 0;
#X connect 16 0 13 0;
#X connect 16 1 15 1;
#X connect 19 0 20 0;
#X connect 20 0 12 0;
#X connect 28 0 34 0;
#X connect 28 0 49 0;
#X connect 28 1 35 0;
#X connect 28 1 36 0;
#X connect 28 2 38 0;
#X connect 28 2 39 0;
#X connect 32 0 21 0;
#X connect 33 0 21 0;
#X connect 34 0 29 1;
#X connect 35 0 30 0;
#X connect 36 0 30 1;
#X connect 37 0 29 1;
#X connect 37 0 30 1;
#X connect 37 0 31 1;
#X connect 38 0 30 1;
#X connect 38 0 29 1;
#X connect 39 0 42 0;
#X connect 39 1 31 0;
#X connect 40 0 39 0;
#X connect 41 0 21 1;
#X connect 42 0 31 1;
#X connect 43 0 0 0;
#X connect 44 0 0 0;
#X connect 46 0 47 0;
#X connect 47 0 48 0;
#X connect 48 0 45 0;
#X connect 49 0 50 0;
#X connect 50 0 51 0;
#X connect 51 0 52 0;
#X connect 52 0 53 0;
#X connect 53 0 54 0;
#X connect 55 0 49 0;
