#N canvas 303 291 1280 708 12;
#X obj 965 649 gemwin 60;
#X msg 957 508 0 \, destroy;
#X obj 891 547 alternator debug;
#X obj 892 517 bng 15 250 50 0 empty empty empty 17 7 0 10 #fcfcfc
#000000 #000000 1;
#X msg 997 618 dimen 640 360 \, cursor 1 \, border 1 \, create \, 1
;
#N canvas 303 61 450 300 init 0;
#X msg 56 107 1;
#X msg 94 107 0;
#X obj 83 152 s debug;
#X obj 53 76 loadbang;
#X msg 166 105 \; pd dsp 1;
#X obj 165 77 loadbang;
#X connect 0 0 2 0;
#X connect 1 0 2 0;
#X connect 3 0 0 0;
#X connect 5 0 4 0;
#X restore 522 18 pd init;
#N canvas 357 129 1170 746 selector 0;
#X obj 97 118 select 10 13;
#X obj 92 302 - 48;
#X obj 114 335 + 0;
#X obj 132 302 * 10;
#X msg 91 263 0;
#X obj 96 368 int;
#X obj 82 226 t b b;
#X obj 89 193 spigot 0;
#X msg 171 163 1;
#X msg 136 159 0;
#X obj 344 8 inlet;
#X obj 397 127 outlet;
#X obj 344 34 moses 65;
#X obj 573 541 outlet;
#X obj 193 398 / 1000;
#X obj 535 111 select 10 13;
#X msg 548 58 50 \, 52 \, 48 \, 10 \, 13 \, 10;
#X msg 617 85 50 \, 50 \, 52 \, 48 \, 10 \, 13 \, 10;
#X obj 742 195 list;
#X obj 661 229 list prepend;
#X obj 616 144 t a 1;
#X obj 580 229 spigot 0;
#X obj 504 260 spigot 0;
#X obj 504 293 list;
#X obj 536 144 t b 0 b 1;
#X obj 503 322 t b a a;
#X msg 421 8 52 \, 10 \, 13 \, 10;
#X msg 502 31 52 \, 51 \, 10 \, 13 \, 10;
#X obj 527 397 moses 4;
#X obj 527 362 list length;
#X obj 556 293 list;
#X obj 448 292 t b 48;
#X obj 573 459 list;
#X obj 573 429 t b;
#X obj 573 486 list prepend string;
#X obj 573 515 list trim;
#X connect 0 0 7 0;
#X connect 0 1 7 0;
#X connect 0 2 1 0;
#X connect 0 2 8 0;
#X connect 1 0 2 0;
#X connect 2 0 3 0;
#X connect 2 0 5 1;
#X connect 3 0 2 1;
#X connect 4 0 3 0;
#X connect 5 0 14 0;
#X connect 6 0 4 0;
#X connect 6 0 9 0;
#X connect 6 1 5 0;
#X connect 7 0 6 0;
#X connect 8 0 7 1;
#X connect 9 0 7 1;
#X connect 10 0 12 0;
#X connect 12 0 15 0;
#X connect 12 1 11 0;
#X connect 15 0 24 0;
#X connect 15 1 24 0;
#X connect 15 2 20 0;
#X connect 16 0 15 0;
#X connect 17 0 15 0;
#X connect 18 0 19 1;
#X connect 19 0 18 0;
#X connect 19 0 23 1;
#X connect 20 0 19 0;
#X connect 20 1 21 1;
#X connect 21 0 22 1;
#X connect 22 0 23 0;
#X connect 23 0 25 0;
#X connect 24 0 18 1;
#X connect 24 0 19 1;
#X connect 24 1 21 1;
#X connect 24 1 22 1;
#X connect 24 2 22 0;
#X connect 24 3 21 0;
#X connect 25 1 29 0;
#X connect 25 2 30 1;
#X connect 25 2 32 1;
#X connect 26 0 15 0;
#X connect 27 0 15 0;
#X connect 28 0 31 0;
#X connect 28 1 33 0;
#X connect 29 0 28 0;
#X connect 30 0 23 1;
#X connect 31 0 23 0;
#X connect 31 1 30 0;
#X connect 32 0 34 0;
#X connect 33 0 32 0;
#X connect 34 0 35 0;
#X connect 35 0 13 0;
#X restore 447 186 pd selector;
#X text 49 591 clearance rack;
#X msg 446 114 66;
#X msg 484 115 67;
#X msg 519 113 68;
#X msg 602 110 115;
#X text 412 77 comport selector;
#X text 924 461 window management;
#X obj 132 76 comport /dev/ttyUSB0 9600;
#X msg 404 114 65;
#X obj 130 140 int;
#X obj 169 140 + 1;
#X obj 130 168 list;
#X obj 130 110 t b a;
#X obj 130 199 print Serial#;
#N canvas 372 369 733 584 highScores 0;
#X obj 242 155 import cyclone;
#X obj 489 326;
#X floatatom 364 239 5 0 0 0 - - - 0 0 1, f 5;
#X obj 369 336 print;
#X obj 356 268 sprintf %.3f;
#X obj 574 278 makefilename;
#X obj 446 215 printf;
#X connect 2 0 4 0;
#X connect 4 0 3 0;
#X restore 152 295 pd highScores;
#X msg 557 112 88;
#X obj 447 214 select 65 66 67 68 115 88;
#X obj 671 288 scoreboard 5 -3;
#N canvas 99 572 450 389 counter 0;
#X obj 127 270 outlet;
#X obj 94 12 inlet;
#X msg 94 102 bang;
#X msg 133 103 stop;
#X obj 94 72 t b b;
#X obj 94 42 select 1 0;
#X obj 127 210 + 5;
#X obj 127 240 / 100;
#X msg 184 142 20;
#X obj 94 132 metro 500;
#X msg 190 97 0;
#X obj 127 180 int 0;
#X connect 1 0 5 0;
#X connect 2 0 9 0;
#X connect 3 0 9 0;
#X connect 4 0 2 0;
#X connect 4 1 8 0;
#X connect 5 0 4 0;
#X connect 5 1 3 0;
#X connect 6 0 11 1;
#X connect 6 0 7 0;
#X connect 7 0 0 0;
#X connect 8 0 11 1;
#X connect 9 0 11 0;
#X connect 11 0 6 0;
#X restore 53 610 pd counter;
#X obj 130 23 loadbang;
#X msg 132 47 devicename /dev/ttyUSB0;
#X obj 939 378 scoreboard -5 -3;
#X obj 939 348 scoreboard -5 -1.75;
#X obj 939 318 scoreboard -5 -0.5;
#X obj 939 288 scoreboard -5 0.75;
#X msg 933 244 text 0.24;
#X msg 893 578 title bbbaseball \, cursor 0 \, border 0 \, dimen 1920
1080 \, offset 0 0 \, create \, 1;
#X floatatom 678 246 5 0 0 0 - - - 0 0 1, f 5;
#X floatatom 631 246 5 0 0 0 - - - 0 0 1, f 5;
#X floatatom 759 248 5 0 0 0 - - - 0 0 1, f 5;
#X floatatom 805 249 5 0 0 0 - - - 0 0 1, f 5;
#X floatatom 847 252 5 0 0 0 - - - 0 0 1, f 5;
#X obj 447 243 sample 1;
#X connect 1 0 0 0;
#X connect 2 0 33 0;
#X connect 2 1 4 0;
#X connect 3 0 2 0;
#X connect 4 0 0 0;
#X connect 6 0 23 0;
#X connect 6 1 24 2;
#X connect 8 0 6 0;
#X connect 9 0 6 0;
#X connect 10 0 6 0;
#X connect 11 0 6 0;
#X connect 14 0 6 0;
#X connect 14 0 19 0;
#X connect 15 0 6 0;
#X connect 16 0 17 0;
#X connect 16 0 18 0;
#X connect 17 0 16 1;
#X connect 18 0 20 0;
#X connect 19 0 16 0;
#X connect 19 1 18 1;
#X connect 23 0 39 0;
#X connect 26 0 27 0;
#X connect 27 0 14 0;
#X connect 32 0 31 0;
#X connect 33 0 0 0;
#X connect 34 0 24 1;
#X connect 35 0 24 0;
#X connect 36 0 24 3;
#X connect 37 0 24 4;
#X connect 38 0 24 5;
