#N canvas 468 330 1452 670 12;
#X msg 1067 432 0 \, destroy;
#N canvas 303 63 450 300 init 0;
#X msg 56 107 1;
#X msg 94 107 0;
#X obj 83 152 s debug;
#X obj 53 76 loadbang;
#X msg 166 105 \; pd dsp 1;
#X obj 165 77 loadbang;
#X obj 24 29 import Gem;
#X connect 0 0 2 0;
#X connect 1 0 2 0;
#X connect 3 0 0 0;
#X connect 5 0 4 0;
#X restore 522 18 pd init;
#N canvas 351 207 515 586 selector 0;
#X obj 4 8 inlet;
#X obj 57 127 outlet;
#X obj 4 34 moses 65;
#X obj 231 545 outlet;
#X obj 195 111 select 10 13;
#X msg 208 58 50 \, 52 \, 48 \, 10 \, 13 \, 10;
#X msg 277 85 50 \, 50 \, 52 \, 48 \, 10 \, 13 \, 10;
#X obj 402 195 list;
#X obj 321 229 list prepend;
#X obj 276 144 t a 1;
#X obj 162 256 spigot 0;
#X obj 162 297 list;
#X obj 196 144 t b 0 b 1;
#X obj 161 326 t b a a;
#X msg 81 8 52 \, 10 \, 13 \, 10;
#X msg 162 31 52 \, 51 \, 10 \, 13 \, 10;
#X obj 185 401 moses 4;
#X obj 185 366 list length;
#X obj 221 305 list;
#X obj 76 248 t b 48;
#X obj 231 463 list;
#X obj 231 433 t b;
#X obj 231 490 list prepend string;
#X obj 231 519 list trim;
#X obj 255 220 spigot 0;
#X msg 256 198 1;
#X msg 220 280 48;
#X connect 0 0 2 0;
#X connect 2 0 4 0;
#X connect 2 1 1 0;
#X connect 4 0 12 0;
#X connect 4 1 12 0;
#X connect 4 2 9 0;
#X connect 5 0 4 0;
#X connect 6 0 4 0;
#X connect 7 0 8 1;
#X connect 8 0 7 0;
#X connect 8 0 11 1;
#X connect 9 0 8 0;
#X connect 9 1 24 1;
#X connect 10 0 11 0;
#X connect 11 0 13 0;
#X connect 12 0 7 1;
#X connect 12 0 8 1;
#X connect 12 1 10 1;
#X connect 12 1 24 1;
#X connect 12 2 10 0;
#X connect 12 3 25 0;
#X connect 13 1 17 0;
#X connect 13 2 18 1;
#X connect 13 2 20 1;
#X connect 14 0 4 0;
#X connect 15 0 4 0;
#X connect 16 0 19 0;
#X connect 16 1 21 0;
#X connect 17 0 16 0;
#X connect 18 0 11 1;
#X connect 19 0 11 0;
#X connect 19 1 26 0;
#X connect 20 0 22 0;
#X connect 21 0 20 0;
#X connect 22 0 23 0;
#X connect 23 0 3 0;
#X connect 24 0 10 1;
#X connect 25 0 24 0;
#X connect 26 0 18 0;
#X restore 447 186 pd selector;
#X msg 446 114 66;
#X msg 484 115 67;
#X msg 519 113 68;
#X text 462 48 comport selector;
#X text 1158 432 window management;
#X obj 145 369 sample ambient;
#X msg 557 112 84;
#X text 453 90 B C D T;
#X text 436 78 start;
#X text 486 76 bat;
#X text 509 64 button;
#X text 560 73 timeout;
#X obj 447 214 select 66 67 68 84;
#X obj 267 370 sample button_hit;
#X obj 416 369 sample button_solid;
#X obj 572 369 sample right_button;
#X obj 76 332 loadbang;
#X obj 143 333 bng 15 250 50 0 empty empty empty 17 7 0 10 -262144
-1 -1;
#X msg 287 302 1 1000;
#X msg 412 302 bang;
#X msg 454 302 0 10000;
#X msg 170 330 0;
#X msg 528 271 0 2000;
#X obj 586 270 t b b;
#X obj 599 230 bng 15 250 50 0 empty empty empty 17 7 0 10 -262144
-1 -1;
#X msg 238 273 0;
#X msg 642 306 1.75 2000 0 \, 0 4500 2000;
#X msg 994 466 title bbbaseball \, cursor 0 \, border 0 \, dimen 1440
900 \, offset 0 0 \, create \, 1;
#X msg 1098 506 dimen 1440 900 \, cursor 1 \, border 1 \, create \,
1;
#X obj 558 623 rectangle 6.4 4;
#X obj 561 400 gemhead;
#X obj 560 485 pix_image /home/user/dev/pd/pd-baseball/Artboard_1.jpg
;
#X obj 559 514 pix_texture;
#X obj 627 26 bng 15 250 50 0 empty empty empty 17 7 0 10 -262144 -1
-1;
#X obj 1066 537 gemwin 60;
#N canvas 441 112 575 632 testCounter 0;
#X obj 438 193 + 1;
#X obj 438 221 t a a;
#X msg 438 103 bang;
#X obj 420 342 i 48;
#X obj 363 401 list append;
#X obj 293 453 list append;
#X obj 199 496 list append;
#X obj 167 536 list prepend string;
#X obj 33 58 t b b b b b;
#X obj 166 563 list trim;
#X obj 167 593 outlet;
#X obj 33 2 inlet;
#X obj 483 251 moses 58;
#X msg 463 133 48;
#X obj 438 279 select 58;
#X msg 441 310 48;
#X obj 318 193 + 1;
#X obj 318 221 t a a;
#X msg 318 103 bang;
#X obj 300 342 i 48;
#X obj 363 251 moses 58;
#X msg 343 133 48;
#X obj 318 279 select 58;
#X msg 321 310 48;
#X obj 188 193 + 1;
#X obj 188 221 t a a;
#X msg 188 103 bang;
#X obj 170 342 i 48;
#X obj 233 251 moses 58;
#X msg 213 133 48;
#X obj 188 279 select 58;
#X msg 191 310 48;
#X obj 68 193 + 1;
#X obj 68 221 t a a;
#X msg 68 103 bang;
#X obj 50 342 i 48;
#X obj 113 251 moses 58;
#X msg 93 133 48;
#X obj 68 279 select 58;
#X msg 71 310 48;
#X obj 318 164 i 48;
#X obj 188 164 i 48;
#X obj 68 164 i 48;
#X obj 438 164 i 48;
#X connect 0 0 1 0;
#X connect 1 0 14 0;
#X connect 1 1 12 0;
#X connect 2 0 43 0;
#X connect 3 0 4 1;
#X connect 4 0 5 1;
#X connect 5 0 6 1;
#X connect 6 0 7 0;
#X connect 7 0 9 0;
#X connect 8 0 35 0;
#X connect 8 1 27 0;
#X connect 8 2 19 0;
#X connect 8 3 3 0;
#X connect 8 4 2 0;
#X connect 9 0 10 0;
#X connect 11 0 8 0;
#X connect 12 0 43 1;
#X connect 12 1 13 0;
#X connect 12 1 18 0;
#X connect 13 0 43 1;
#X connect 14 0 15 0;
#X connect 14 1 3 1;
#X connect 15 0 3 1;
#X connect 16 0 17 0;
#X connect 17 0 22 0;
#X connect 17 1 20 0;
#X connect 18 0 40 0;
#X connect 19 0 4 0;
#X connect 20 0 40 1;
#X connect 20 1 21 0;
#X connect 20 1 26 0;
#X connect 21 0 40 1;
#X connect 22 0 23 0;
#X connect 22 1 19 1;
#X connect 23 0 19 1;
#X connect 24 0 25 0;
#X connect 25 0 30 0;
#X connect 25 1 28 0;
#X connect 26 0 41 0;
#X connect 27 0 5 0;
#X connect 28 0 41 1;
#X connect 28 1 29 0;
#X connect 28 1 34 0;
#X connect 29 0 41 1;
#X connect 30 0 31 0;
#X connect 30 1 27 1;
#X connect 31 0 27 1;
#X connect 32 0 33 0;
#X connect 33 0 38 0;
#X connect 33 1 36 0;
#X connect 34 0 42 0;
#X connect 35 0 6 0;
#X connect 36 0 42 1;
#X connect 36 1 37 0;
#X connect 37 0 42 1;
#X connect 38 0 39 0;
#X connect 38 1 35 1;
#X connect 39 0 35 1;
#X connect 40 0 16 0;
#X connect 41 0 24 0;
#X connect 42 0 32 0;
#X connect 43 0 0 0;
#X restore 954 111 pd testCounter;
#X msg 985 50 stop;
#X msg 946 50 bang;
#X floatatom 1042 51 5 0 0 0 - - -;
#X obj 954 84 metro 1;
#N canvas 1 60 450 300 comm 0;
#X obj 182 136 comport /dev/ttyUSB0 9600;
#X obj 180 200 int;
#X obj 219 200 + 1;
#X obj 180 228 list;
#X obj 180 170 t b a;
#X obj 180 259 print Serial#;
#X obj 159 13 loadbang;
#X msg 182 107 devicename /dev/ttyUSB0;
#X msg 100 100 close;
#X msg 291 76 info;
#X obj 354 165 route open;
#X obj 139 17 bng 15 250 50 0 empty empty empty 17 7 0 10 -262144 -1
-1;
#X obj 263 45 t b b;
#X obj 354 190 == 0;
#X obj 301 216 spigot 0;
#X obj 263 16 metro 1000;
#X obj 116 168 outlet;
#X connect 0 0 4 0;
#X connect 0 0 16 0;
#X connect 0 1 10 0;
#X connect 1 0 2 0;
#X connect 1 0 3 0;
#X connect 2 0 1 1;
#X connect 3 0 5 0;
#X connect 4 0 1 0;
#X connect 4 1 3 1;
#X connect 6 0 15 0;
#X connect 7 0 0 0;
#X connect 8 0 0 0;
#X connect 9 0 0 0;
#X connect 10 0 13 0;
#X connect 11 0 15 0;
#X connect 12 0 14 0;
#X connect 12 1 9 0;
#X connect 13 0 14 1;
#X connect 14 0 7 0;
#X connect 15 0 12 0;
#X restore 503 154 pd comm;
#X obj 994 427 loadbang;
#X obj 1066 364 gemkeyboard;
#X obj 1066 387 select 24;
#X obj 1159 369 key;
#X obj 1159 393 select 113;
#X msg 675 58 string 48 48 48 48;
#X obj 673 96 scoreboard -3.32 -0.4 42 0.84 0.04;
#X obj 154 450 gemhead;
#X obj 158 622 rectangle 6.4 4;
#X obj 154 513 pix_texture;
#X obj 153 485 pix_image /home/user/dev/pd/pd-baseball/instructions.jpg
;
#X obj 684 455 r playGame;
#X obj 281 398 r playGame;
#X msg 321 181 1;
#X obj 321 226 s playGame;
#X msg 235 206 0;
#X msg 233 160 bang;
#X obj 560 583 alpha;
#X obj 187 590 alpha;
#X obj 273 557 line;
#X obj 282 428 * -1;
#X obj 280 458 + 1;
#X obj 683 537 line;
#X obj 138 552 colorRGB 1 1 1 1;
#X obj 560 550 colorRGB 1 1 1 0;
#X obj 673 140 scoreboard 4.22 0.55 10 0.2 0.01;
#X obj 674 170 scoreboard 4.22 -0.16 10 0.2 0.01;
#X obj 673 200 scoreboard 4.22 -0.87 10 0.2 0.01;
#X obj 673 230 scoreboard 4.22 -1.58 10 0.2 0.01;
#X obj 672 260 scoreboard 4.22 -2.28 10 0.2 0.01;
#X msg 271 527 \$1 500;
#X msg 684 506 \$1 500;
#X obj 234 182 delay 60000;
#X connect 0 0 37 0;
#X connect 2 0 15 0;
#X connect 2 1 50 2;
#X connect 3 0 2 0;
#X connect 3 0 57 0;
#X connect 4 0 2 0;
#X connect 5 0 2 0;
#X connect 5 0 60 0;
#X connect 15 0 21 0;
#X connect 15 0 50 1;
#X connect 15 1 22 0;
#X connect 15 1 23 0;
#X connect 15 2 25 0;
#X connect 15 2 26 0;
#X connect 15 2 50 0;
#X connect 19 0 8 0;
#X connect 20 0 8 0;
#X connect 21 0 16 1;
#X connect 22 0 17 0;
#X connect 23 0 17 1;
#X connect 24 0 16 1;
#X connect 24 0 17 1;
#X connect 24 0 18 1;
#X connect 25 0 17 1;
#X connect 25 0 16 1;
#X connect 26 0 29 0;
#X connect 26 1 18 0;
#X connect 27 0 26 0;
#X connect 28 0 8 1;
#X connect 29 0 18 1;
#X connect 30 0 37 0;
#X connect 31 0 37 0;
#X connect 33 0 34 0;
#X connect 34 0 35 0;
#X connect 35 0 68 0;
#X connect 36 0 49 0;
#X connect 36 0 50 1;
#X connect 38 0 50 2;
#X connect 39 0 42 0;
#X connect 40 0 42 0;
#X connect 41 0 42 1;
#X connect 42 0 38 0;
#X connect 43 0 2 0;
#X connect 44 0 30 0;
#X connect 45 0 46 0;
#X connect 46 0 0 0;
#X connect 47 0 48 0;
#X connect 48 0 0 0;
#X connect 49 0 50 2;
#X connect 50 0 69 1;
#X connect 51 0 54 0;
#X connect 53 0 67 0;
#X connect 54 0 53 0;
#X connect 55 0 75 0;
#X connect 56 0 64 0;
#X connect 57 0 58 0;
#X connect 59 0 58 0;
#X connect 60 0 76 0;
#X connect 61 0 32 0;
#X connect 62 0 52 0;
#X connect 63 0 67 4;
#X connect 64 0 65 0;
#X connect 65 0 74 0;
#X connect 66 0 68 4;
#X connect 67 0 62 0;
#X connect 68 0 61 0;
#X connect 69 0 70 1;
#X connect 70 0 71 1;
#X connect 71 0 72 1;
#X connect 72 0 73 1;
#X connect 74 0 63 0;
#X connect 75 0 66 0;
#X connect 76 0 59 0;
