#N canvas 1058 106 757 543 10;
#N canvas 0 0 450 300 (subpatch) 0;
#X array array-\$0 1.34395e+06 float 2;
#X coords 0 1 1.34395e+06 -1 200 140 1 0 0;
#X restore 485 82 graph;
#X obj 235 213 soundfiler;
#X obj 237 451 dac~;
#X obj 235 161 list;
#X obj 62 83 t b b;
#X obj 58 48 bng 15 250 50 0 empty empty empty 17 7 0 10 -262144 -1
-1;
#X msg 235 186 read -resize \$1 array-\$2;
#X obj 81 48 loadbang;
#X obj 239 329 phasor~;
#X msg 224 270 48000;
#X obj 239 302 /;
#X obj 235 239 t b a a;
#X obj 239 365 *~;
#X obj 238 391 tabread4~ array-\$0;
#X obj 62 118 makefilename /home/user/dev/pd/pd-baseball/edited_audio/\$1.wav
;
#X obj 384 125 i \$0;
#X obj 305 253 inlet;
#X msg 332 308 1;
#X obj 305 280 t b b;
#X obj 358 349 inlet;
#X msg 278 304 0;
#X obj 238 422 *~;
#X obj 388 419 snapshot~;
#X floatatom 390 457 5 0 0 0 - - -;
#X msg 410 352 bang;
#X msg 447 351 stop;
#X obj 407 388 metro 50;
#X obj 83 395 /;
#X msg 71 367 1;
#X obj 71 342 t b a;
#X floatatom 83 424 5 0 0 0 - - -;
#X text 119 423 secs;
#X obj 355 377 vline~;
#X connect 1 0 11 0;
#X connect 3 0 6 0;
#X connect 4 0 14 0;
#X connect 4 1 15 0;
#X connect 5 0 4 0;
#X connect 6 0 1 0;
#X connect 7 0 4 0;
#X connect 8 0 12 0;
#X connect 8 0 22 0;
#X connect 9 0 10 0;
#X connect 10 0 8 0;
#X connect 10 0 29 0;
#X connect 11 0 9 0;
#X connect 11 1 10 1;
#X connect 11 2 12 1;
#X connect 12 0 13 0;
#X connect 13 0 21 0;
#X connect 14 0 3 0;
#X connect 15 0 3 1;
#X connect 16 0 18 0;
#X connect 17 0 32 0;
#X connect 18 0 20 0;
#X connect 18 1 17 0;
#X connect 19 0 32 0;
#X connect 20 0 8 1;
#X connect 21 0 2 0;
#X connect 21 0 2 1;
#X connect 22 0 23 0;
#X connect 24 0 26 0;
#X connect 25 0 26 0;
#X connect 26 0 22 0;
#X connect 27 0 30 0;
#X connect 28 0 27 0;
#X connect 29 0 28 0;
#X connect 29 1 27 1;
#X connect 32 0 21 1;
