#N canvas 523 122 968 782 10;
#N canvas 0 0 450 300 (subpatch) 0;
#X array array-\$1 83592 float 2 black black;
#X coords 0 1 83592 -1 200 140 1;
#X restore 384 5904 graph;
#X obj 285 5627 soundfiler;
#X obj 270 5781 line~;
#X obj 270 5836 dac~;
#X obj 270 5805 tabread4~ array-\$1;
#X obj 270 5650 int;
#X obj 270 5723 list;
#X obj 270 5701 / 48;
#X obj 270 5675 t a a;
#X obj 182 5610 inlet;
#X obj 112 5532 makefilename /media/user/4F1D-053B/baseball/\$1.wav
;
#X obj 431 5533 i \$1;
#X obj 285 5559 list;
#X obj 112 5497 t b b;
#X obj 108 5462 bng 15 250 50 0 empty empty empty 17 7 0 10 #fcfcfc
#000000 #000000 1;
#X msg 285 5600 read -resize \$1 array-\$2;
#X msg 270 5749 0 \, \$2 \$1;
#X obj 131 5462 loadbang;
#X connect 1 0 5 1;
#X connect 2 0 4 0;
#X connect 4 0 3 0;
#X connect 4 0 3 1;
#X connect 5 0 8 0;
#X connect 6 0 16 0;
#X connect 7 0 6 0;
#X connect 8 0 7 0;
#X connect 8 1 6 1;
#X connect 9 0 5 0;
#X connect 10 0 12 0;
#X connect 11 0 12 1;
#X connect 12 0 15 0;
#X connect 13 0 10 0;
#X connect 13 1 11 0;
#X connect 14 0 13 0;
#X connect 15 0 1 0;
#X connect 16 0 2 0;
#X connect 17 0 13 0;
