#N canvas 523 122 624 475 10;
#N canvas 0 0 450 300 (subpatch) 0;
#X array array-\$1 83592 float 2;
#X coords 0 1 83592 -1 200 140 1;
#X restore 404 37 graph;
#X obj 201 229 soundfiler;
#X obj 186 383 line~;
#X obj 186 438 dac~;
#X obj 186 407 tabread4~ array-\$1;
#X obj 186 252 int;
#X obj 186 325 list;
#X obj 186 303 / 48;
#X obj 186 277 t a a;
#X obj 98 212 inlet;
#X obj 341 118 i \$1;
#X obj 201 161 list;
#X obj 25 50 t b b;
#X obj 25 20 bng 15 250 50 0 empty empty empty 17 7 0 10 -262144 -1
-1;
#X msg 201 202 read -resize \$1 array-\$2;
#X msg 186 351 0 \, \$2 \$1;
#X obj 48 20 loadbang;
#X obj 305 243 print;
#X obj 25 84 i \$1;
#X obj 25 118 makefilename /home/user/Desktop/pd-baseball/\$1.wav;
#X connect 1 0 5 1;
#X connect 2 0 4 0;
#X connect 4 0 3 0;
#X connect 4 0 3 1;
#X connect 5 0 8 0;
#X connect 6 0 15 0;
#X connect 7 0 6 0;
#X connect 8 0 7 0;
#X connect 8 1 6 1;
#X connect 9 0 5 0;
#X connect 10 0 11 1;
#X connect 11 0 14 0;
#X connect 12 0 18 0;
#X connect 12 1 10 0;
#X connect 13 0 12 0;
#X connect 14 0 1 0;
#X connect 14 0 17 0;
#X connect 15 0 2 0;
#X connect 16 0 12 0;
#X connect 18 0 19 0;
#X connect 19 0 11 0;
