#N canvas 809 517 867 509 10;
#X floatatom 656 390 5 0 0 0 - - -;
#X obj 457 283 translateXYZ 5 -3 0;
#X obj 658 333 loadbang;
#X obj 459 239 gemhead 52;
#X obj 456 383 text3d hello;
#X obj 455 328 colorRGB 1 0.2 0.2 1;
#X obj 457 355 alpha;
#X text 421 190 score;
#X obj 527 305 nbx 5 14 -1e+37 1e+37 0 1 empty empty empty 0 -8 0 10
-262144 -1 -1 0.2 256;
#X obj 587 305 nbx 5 14 -1e+37 1e+37 0 1 empty empty empty 0 -8 0 10
-262144 -1 -1 1 256;
#X obj 407 305 nbx 5 14 -1e+37 1e+37 0 1 empty empty empty 0 -8 0 10
-262144 -1 -1 1 256;
#X obj 467 305 nbx 5 14 -1e+37 1e+37 0 1 empty empty empty 0 -8 0 10
-262144 -1 -1 0.2 256;
#X obj 367 154 inlet;
#X obj 332 101 \$1;
#X obj 436 100 \$2;
#X obj 375 57 loadbang;
#X obj 492 163 loadbang;
#X obj 547 97 openpanel;
#X msg 548 126 font \$1;
#X obj 545 64 bng 15 250 50 0 empty empty empty 17 7 0 10 -262144 -1
-1;
#X obj 592 173 print;
#X msg 427 211 font /home/user/Desktop/baseball/Segment7-4Gml.otf;
#X obj 372 24 inlet;
#X obj 412 24 inlet;
#X obj 679 96 inlet;
#X obj 658 363 \$3;
#X connect 0 0 4 1;
#X connect 1 0 5 0;
#X connect 2 0 25 0;
#X connect 3 0 1 0;
#X connect 5 0 6 0;
#X connect 6 0 4 0;
#X connect 8 0 5 3;
#X connect 9 0 5 4;
#X connect 10 0 5 1;
#X connect 11 0 5 2;
#X connect 12 0 4 0;
#X connect 13 0 1 1;
#X connect 14 0 1 2;
#X connect 15 0 13 0;
#X connect 15 0 14 0;
#X connect 16 0 21 0;
#X connect 17 0 18 0;
#X connect 17 0 20 0;
#X connect 18 0 4 0;
#X connect 19 0 17 0;
#X connect 21 0 4 0;
#X connect 22 0 13 0;
#X connect 23 0 14 0;
#X connect 24 0 4 1;
#X connect 25 0 4 1;
