#N canvas 936 324 867 509 10;
#X floatatom 656 390 5 0 0 0 - - -;
#X obj 457 283 translateXYZ 5 -3 0;
#X obj 658 333 loadbang;
#X obj 459 239 gemhead 52;
#X obj 458 360 alpha;
#X text 421 190 score;
#X obj 527 305 nbx 5 14 -1e+37 1e+37 0 1 empty empty empty 0 -8 0 10
-262144 -1 -1 0.2 256;
#X obj 407 305 nbx 5 14 -1e+37 1e+37 0 1 empty empty empty 0 -8 0 10
-262144 -1 -1 1 256;
#X obj 467 305 nbx 5 14 -1e+37 1e+37 0 1 empty empty empty 0 -8 0 10
-262144 -1 -1 0.2 256;
#X obj 367 154 inlet;
#X obj 332 101 \$1;
#X obj 436 100 \$2;
#X obj 375 57 loadbang;
#X obj 492 163 loadbang;
#X obj 547 97 openpanel;
#X msg 548 126 font \$1;
#X obj 545 64 bng 15 250 50 0 empty empty empty 17 7 0 10 -262144 -1
-1;
#X obj 592 173 print;
#X obj 372 24 inlet;
#X obj 412 24 inlet;
#X obj 679 96 inlet;
#X obj 658 363 \$3;
#X obj 241 30 inlet;
#X obj 195 158 list;
#X obj 192 193 outlet;
#X obj 217 66 route bang list;
#X obj 251 106 t a b;
#X obj 298 24 inlet;
#X obj 456 383 text3d 0;
#X msg 230 286 string 48 48 48 48;
#X obj 232 245 loadbang;
#X msg 427 211 font /home/user/dev/pd/pd-baseball/Segment7-4Gml.otf
;
#X obj 636 246 loadbang;
#X msg 638 275 justify base center;
#X obj 100 270 spigot 1;
#X msg 137 233 0;
#X msg 171 234 1;
#X msg 98 138 stop;
#X msg 52 135 bang;
#X obj 64 52 bng 15 250 50 0 empty empty empty 17 7 0 10 -262144 -1
-1;
#X obj 80 94 delay 3000;
#X obj 88 169 metro 500;
#X obj 124 198 delay 250;
#X obj 65 22 inlet;
#X obj 637 334 bng 15 250 50 0 empty empty empty 17 7 0 10 -262144
-1 -1;
#X obj 231 463 text3d .;
#X obj 231 423 translateXYZ 0.84 0.04 0;
#X obj 213 362 \$4;
#X obj 240 361 \$5;
#X obj 208 332 loadbang;
#X obj 725 102 r playGame;
#X obj 718 166 line;
#X obj 457 334 colorRGB 1 0.2 0.2 0;
#X msg 723 131 \$1 500;
#X connect 0 0 28 1;
#X connect 1 0 52 0;
#X connect 2 0 21 0;
#X connect 3 0 34 0;
#X connect 4 0 28 0;
#X connect 4 0 46 0;
#X connect 6 0 52 3;
#X connect 7 0 52 1;
#X connect 8 0 52 2;
#X connect 9 0 28 0;
#X connect 10 0 1 1;
#X connect 11 0 1 2;
#X connect 12 0 10 0;
#X connect 12 0 11 0;
#X connect 13 0 31 0;
#X connect 14 0 15 0;
#X connect 14 0 17 0;
#X connect 15 0 28 0;
#X connect 16 0 14 0;
#X connect 18 0 10 0;
#X connect 19 0 11 0;
#X connect 20 0 28 1;
#X connect 21 0 28 1;
#X connect 21 0 45 1;
#X connect 22 0 25 0;
#X connect 23 0 24 0;
#X connect 25 0 23 0;
#X connect 25 1 26 0;
#X connect 26 0 23 1;
#X connect 26 0 28 0;
#X connect 26 1 23 0;
#X connect 27 0 23 1;
#X connect 27 0 28 0;
#X connect 29 0 28 0;
#X connect 30 0 29 0;
#X connect 31 0 28 0;
#X connect 31 0 45 0;
#X connect 32 0 33 0;
#X connect 33 0 28 0;
#X connect 34 0 1 0;
#X connect 35 0 34 1;
#X connect 36 0 34 1;
#X connect 37 0 41 0;
#X connect 38 0 41 0;
#X connect 39 0 38 0;
#X connect 39 0 40 0;
#X connect 40 0 37 0;
#X connect 41 0 35 0;
#X connect 41 0 42 0;
#X connect 42 0 36 0;
#X connect 43 0 39 0;
#X connect 44 0 21 0;
#X connect 46 0 45 0;
#X connect 47 0 46 1;
#X connect 48 0 46 2;
#X connect 49 0 47 0;
#X connect 49 0 48 0;
#X connect 50 0 53 0;
#X connect 51 0 52 4;
#X connect 52 0 4 0;
#X connect 53 0 51 0;
