#N canvas 732 543 867 509 10;
#X obj 457 283 translateXYZ 5 -3 0;
#X obj 663 303 loadbang;
#X obj 459 239 gemhead 52;
#X obj 455 328 colorRGB 1 0.2 0.2 1;
#X obj 457 355 alpha;
#X text 421 190 score;
#X obj 227 392 rectangle 1 0.5;
#X obj 194 182 gemhead 51;
#X obj 226 269 translateXYZ 5 -3 0;
#X floatatom 272 361 5 0 0 0 - - -, f 5;
#X floatatom 321 362 5 0 0 0 - - -, f 5;
#X obj 227 331 colorRGB 0 0 0 1;
#X obj 224 363 alpha;
#X text 192 152 black rectangle;
#X obj 527 305 nbx 5 14 -1e+37 1e+37 0 1 empty empty empty 0 -8 0 10
-262144 -1 -1 0.2 256;
#X obj 587 305 nbx 5 14 -1e+37 1e+37 0 1 empty empty empty 0 -8 0 10
-262144 -1 -1 1 256;
#X obj 407 305 nbx 5 14 -1e+37 1e+37 0 1 empty empty empty 0 -8 0 10
-262144 -1 -1 1 256;
#X obj 467 305 nbx 5 14 -1e+37 1e+37 0 1 empty empty empty 0 -8 0 10
-262144 -1 -1 0.2 256;
#X obj 267 305 nbx 5 14 -1e+37 1e+37 0 1 empty empty empty 0 -8 0 10
-262144 -1 -1 0 256;
#X obj 327 305 nbx 5 14 -1e+37 1e+37 0 1 empty empty empty 0 -8 0 10
-262144 -1 -1 1 256;
#X obj 147 305 nbx 5 14 -1e+37 1e+37 0 1 empty empty empty 0 -8 0 10
-262144 -1 -1 0 256;
#X obj 207 305 nbx 5 14 -1e+37 1e+37 0 1 empty empty empty 0 -8 0 10
-262144 -1 -1 0 256;
#X obj 367 154 inlet;
#X obj 332 101 \$1;
#X obj 436 100 \$2;
#X obj 375 57 loadbang;
#X obj 492 163 loadbang;
#X obj 547 97 openpanel;
#X msg 548 126 font \$1;
#X obj 545 64 bng 15 250 50 0 empty empty empty 17 7 0 10 -262144 -1
-1;
#X obj 592 173 print;
#X obj 152 24 inlet;
#X obj 192 24 inlet;
#X obj 372 24 inlet;
#X obj 412 24 inlet;
#X obj 679 96 inlet;
#X obj 661 334 f \$3;
#X obj 77 102 inlet;
#X obj 456 383 text3d 0;
#X msg 475 190 font /home/user/Desktop/pd-baseball/fonts-DSEG_v046/DSEG7-Classic/DSEG7Classic-Bold.ttf
;
#X obj 31 230 list;
#X obj 28 265 outlet;
#X obj 53 138 route bang list;
#X obj 87 178 t a b;
#X connect 0 0 3 0;
#X connect 1 0 36 0;
#X connect 2 0 0 0;
#X connect 3 0 4 0;
#X connect 4 0 38 0;
#X connect 7 0 8 0;
#X connect 8 0 11 0;
#X connect 9 0 6 1;
#X connect 10 0 6 2;
#X connect 11 0 12 0;
#X connect 12 0 6 0;
#X connect 14 0 3 3;
#X connect 15 0 3 4;
#X connect 16 0 3 1;
#X connect 17 0 3 2;
#X connect 18 0 11 3;
#X connect 19 0 11 4;
#X connect 20 0 11 1;
#X connect 21 0 11 2;
#X connect 22 0 38 0;
#X connect 22 0 40 1;
#X connect 23 0 8 1;
#X connect 23 0 0 1;
#X connect 24 0 0 2;
#X connect 24 0 8 2;
#X connect 25 0 23 0;
#X connect 25 0 24 0;
#X connect 26 0 39 0;
#X connect 27 0 28 0;
#X connect 27 0 30 0;
#X connect 28 0 38 0;
#X connect 29 0 27 0;
#X connect 31 0 6 1;
#X connect 32 0 6 2;
#X connect 33 0 23 0;
#X connect 34 0 24 0;
#X connect 35 0 38 1;
#X connect 36 0 38 1;
#X connect 37 0 42 0;
#X connect 39 0 38 0;
#X connect 40 0 41 0;
#X connect 42 0 40 0;
#X connect 42 1 43 0;
#X connect 43 0 40 1;
#X connect 43 0 38 0;
#X connect 43 1 40 0;
